<svg xmlns="http://www.w3.org/2000/svg" width="674.715" height="672.056" version="1"><g><path d="M501.036 387.682a127.28 127.28 0 1 1-254.56 0" transform="matrix(2.579 0 0 -2.579 -626.415 1337.037)" fill="#800000" stroke="#000" stroke-width="7.1"/><path d="M501.036 387.682a127.28 127.28 0 1 1-254.56 0" transform="matrix(2.578 0 0 2.578 -626.087 -664.408)" fill="#f2f2f2" stroke="#000" stroke-width="7.1"/><path stroke="#000" stroke-width="18.308" d="M17.76 368.56h640.97v-54.334H17.76z"/><path transform="matrix(0 -4.18 -4.18 0 2501.376 1781.874)" d="M346.663 536.974a20.536 20.536 0 1 1 .013 0" fill="#f2f2f2" stroke="#000" stroke-width="4.33"/><path transform="matrix(0 -2.252 -2.252 0 1505.352 1113.661)" d="M346.663 536.974a20.536 20.536 0 1 1 .28-.017" fill="#999"/></g></svg>